<?xml version="1.0" standalone="no"?><!DOCTYPE svg PUBLIC "-//W3C//DTD SVG 1.1//EN" "http://www.w3.org/Graphics/SVG/1.1/DTD/svg11.dtd"><svg t="1616728284345" class="icon" viewBox="0 0 1024 1024" version="1.1" xmlns="http://www.w3.org/2000/svg" p-id="1988" xmlns:xlink="http://www.w3.org/1999/xlink" width="200" height="200"><defs><style type="text/css"></style></defs><path d="M938.666667 89.216V934.826667c-0.085333 12.330667-5.12 24.106667-13.909334 32.853333-8.789333 8.661333-20.693333 13.610667-33.152 13.696H132.394667c-12.458667 0-24.448-4.906667-33.28-13.653333A46.378667 46.378667 0 0 1 85.333333 934.826667V89.173333c0.085333-12.330667 5.12-24.106667 13.909334-32.853333 8.789333-8.661333 20.736-13.610667 33.152-13.696h759.210666C917.589333 42.666667 938.666667 63.488 938.666667 89.216zM478.464 564.650667l-117.333333-116.181334-66.986667 66.389334 184.32 182.528 268.202667-265.514667-67.029334-66.346667-201.173333 199.082667v0.042667z" p-id="1989"></path></svg>