<?xml version="1.0" standalone="no"?><!DOCTYPE svg PUBLIC "-//W3C//DTD SVG 1.1//EN" "http://www.w3.org/Graphics/SVG/1.1/DTD/svg11.dtd"><svg t="1616728349322" class="icon" viewBox="0 0 1024 1024" version="1.1" xmlns="http://www.w3.org/2000/svg" p-id="2488" xmlns:xlink="http://www.w3.org/1999/xlink" width="200" height="200"><defs><style type="text/css"></style></defs><path d="M938.7008 89.2416v845.5168a46.6944 46.6944 0 0 1-13.9264 32.8192 47.616 47.616 0 0 1-33.1776 13.7728H132.4032a47.3088 47.3088 0 0 1-33.28-13.6704 46.3872 46.3872 0 0 1-13.7728-32.9216V89.2416c0.1024-12.3392 5.12-24.1152 13.8752-32.8704a47.616 47.616 0 0 1 33.1776-13.7216h759.1936c26.0096 0 47.104 20.8384 47.104 46.592z m-94.8224 47.3088H180.1728v750.8992h663.7056V136.5504z m-365.3632 428.032l201.1136-199.0656 67.072 66.3552-268.1856 265.5232-184.4224-182.5792 67.072-66.3552 117.3504 116.1728z" p-id="2489"></path></svg>