<?xml version="1.0" standalone="no"?><!DOCTYPE svg PUBLIC "-//W3C//DTD SVG 1.1//EN" "http://www.w3.org/Graphics/SVG/1.1/DTD/svg11.dtd"><svg t="1616728368089" class="icon" viewBox="0 0 1024 1024" version="1.1" xmlns="http://www.w3.org/2000/svg" p-id="2613" xmlns:xlink="http://www.w3.org/1999/xlink" width="200" height="200"><defs><style type="text/css"></style></defs><path d="M981.2992 717.6704a263.168 263.168 0 0 1-62.1568 169.1648 283.6992 283.6992 0 0 1-159.0272 94.5152l-29.952-86.1184a192.512 192.512 0 0 0 76.3904-29.5936 183.296 183.296 0 0 0 55.808-58.0608h-115.712c-24.8832 0-48.7936-9.472-66.3552-26.368a88.1664 88.1664 0 0 1-27.4944-63.6416V537.6c0-23.8592 9.8816-46.7456 27.4944-63.6416 17.5616-16.896 41.472-26.368 66.3552-26.368h137.8816A355.6864 355.6864 0 0 0 760.32 222.72 385.024 385.024 0 0 0 512 132.7104a385.024 385.024 0 0 0-248.32 89.9584 355.6864 355.6864 0 0 0-124.2624 224.9216h137.8816c24.9344 0 48.7936 9.5232 66.4064 26.368 17.6128 16.896 27.4944 39.7824 27.4944 63.6416v179.968c0 23.8592-9.8816 46.7456-27.4944 63.6416-17.6128 16.896-41.472 26.368-66.4064 26.368h-140.8c-24.8832 0-48.7424-9.472-66.3552-26.368a88.1664 88.1664 0 0 1-27.4944-63.6416V492.5952C42.6496 244.1216 252.7744 42.6496 512 42.6496c259.1744 0 469.2992 201.472 469.2992 449.9456v225.0752z m-93.8496-0.1024V537.6h-140.8v179.968h140.8zM136.4992 537.6v179.968h140.8V537.6h-140.8z" p-id="2614"></path></svg>