<?xml version="1.0" standalone="no"?><!DOCTYPE svg PUBLIC "-//W3C//DTD SVG 1.1//EN" "http://www.w3.org/Graphics/SVG/1.1/DTD/svg11.dtd"><svg t="1616728215907" class="icon" viewBox="0 0 1024 1024" version="1.1" xmlns="http://www.w3.org/2000/svg" p-id="1363" xmlns:xlink="http://www.w3.org/1999/xlink" width="200" height="200"><defs><style type="text/css"></style></defs><path d="M981.333333 717.653333a263.168 263.168 0 0 1-62.165333 169.173334A283.648 283.648 0 0 1 760.149333 981.333333l-29.952-86.101333a192.554667 192.554667 0 0 0 76.373334-29.610667c22.826667-15.146667 41.898667-34.986667 55.808-58.026666H746.666667a95.957333 95.957333 0 0 1-66.389334-26.368 88.149333 88.149333 0 0 1-27.477333-63.658667V537.6c0-23.893333 9.898667-46.762667 27.477333-63.616a95.957333 95.957333 0 0 1 66.389334-26.368h137.898666c-11.477333-86.997333-55.637333-166.954667-124.202666-224.938667A384.981333 384.981333 0 0 0 512 132.693333c-91.434667 0-179.754667 32-248.32 89.984-68.608 57.984-112.768 137.941333-124.245333 224.938667H277.333333c24.874667 0 48.768 9.472 66.389334 26.368 17.578667 16.853333 27.477333 39.765333 27.477333 63.616v179.968c0 23.893333-9.898667 46.762667-27.477333 63.658667a96 96 0 0 1-66.389334 26.325333H136.533333a96 96 0 0 1-66.389333-26.325333A88.149333 88.149333 0 0 1 42.666667 717.568v-224.981333C42.666667 244.138667 252.8 42.666667 512 42.666667s469.333333 201.429333 469.333333 449.962666v225.024z" p-id="1364"></path></svg>