<?xml version="1.0" standalone="no"?><!DOCTYPE svg PUBLIC "-//W3C//DTD SVG 1.1//EN" "http://www.w3.org/Graphics/SVG/1.1/DTD/svg11.dtd"><svg t="1616728319136" class="icon" viewBox="0 0 1024 1024" version="1.1" xmlns="http://www.w3.org/2000/svg" p-id="2238" xmlns:xlink="http://www.w3.org/1999/xlink" width="200" height="200"><defs><style type="text/css"></style></defs><path d="M466.944 623.744v89.386667c-71.68 0-140.373333 28.288-191.061333 78.549333A267.178667 267.178667 0 0 0 196.736 981.333333H106.666667c0-94.848 37.973333-185.813333 105.514666-252.842666a361.685333 361.685333 0 0 1 254.762667-104.746667z m0-44.714667c-149.290667 0-270.208-119.978667-270.208-268.16C196.736 162.688 317.653333 42.666667 466.944 42.666667c149.333333 0 270.250667 120.021333 270.250667 268.202666 0 148.181333-120.917333 268.16-270.250667 268.16z m0-89.386666c99.541333 0 180.181333-80 180.181333-178.773334 0-98.816-80.64-178.773333-180.181333-178.773333-99.498667 0-180.138667 79.957333-180.138667 178.773333 0 98.773333 80.64 178.773333 180.138667 178.773334z m405.333333 268.202666H917.333333V981.333333h-360.277333v-223.488h45.013333v-44.714666c0-35.541333 14.250667-69.674667 39.594667-94.805334 25.344-25.173333 59.690667-39.253333 95.530667-39.253333 35.84 0 70.186667 14.08 95.530666 39.253333a133.546667 133.546667 0 0 1 39.552 94.805334v44.714666z m-90.026666 0v-44.714666c0-11.861333-4.778667-23.210667-13.226667-31.573334a45.226667 45.226667 0 0 0-63.701333 0c-8.448 8.362667-13.184 19.712-13.184 31.573334v44.714666h90.069333z" p-id="2239"></path></svg>