<?xml version="1.0" standalone="no"?><!DOCTYPE svg PUBLIC "-//W3C//DTD SVG 1.1//EN" "http://www.w3.org/Graphics/SVG/1.1/DTD/svg11.dtd"><svg t="1618971706179" class="icon" viewBox="0 0 1024 1024" version="1.1" xmlns="http://www.w3.org/2000/svg" p-id="1438" xmlns:xlink="http://www.w3.org/1999/xlink" width="200" height="200"><defs><style type="text/css"></style></defs><path d="M746.666667 42.666667v93.866666h141.141333c25.728 0 46.592 20.906667 46.592 46.592v751.616c0 25.685333-20.906667 46.592-46.592 46.592H136.192C110.506667 981.333333 89.6 960.426667 89.6 934.741333V183.125333c0-25.728 20.906667-46.592 46.592-46.592H277.333333V42.666667h469.333334z m-469.333334 187.733333H183.466667v657.066667h657.066666V230.4h-93.866666v93.866667h-469.333334V230.4z m93.866667 469.333333v93.866667H277.333333v-93.866667h93.866667z m0-140.8v93.866667H277.333333v-93.866667h93.866667z m0-140.8V512H277.333333V418.133333h93.866667z m281.6-281.6H371.2v93.866667h281.6V136.533333z" p-id="1439"></path></svg>