<?xml version="1.0" standalone="no"?><!DOCTYPE svg PUBLIC "-//W3C//DTD SVG 1.1//EN" "http://www.w3.org/Graphics/SVG/1.1/DTD/svg11.dtd"><svg t="1616728294954" class="icon" viewBox="0 0 1024 1024" version="1.1" xmlns="http://www.w3.org/2000/svg" p-id="2113" xmlns:xlink="http://www.w3.org/1999/xlink" width="200" height="200"><defs><style type="text/css"></style></defs><path d="M934.4 495.36V934.4a46.933333 46.933333 0 0 1-46.933333 46.933333H136.533333a46.933333 46.933333 0 0 1-46.933333-46.933333V495.36A187.008 187.008 0 0 1 42.666667 371.2V89.6A46.933333 46.933333 0 0 1 89.6 42.666667h844.8A46.933333 46.933333 0 0 1 981.333333 89.6v281.6a187.264 187.264 0 0 1-46.933333 124.16z m-93.866667 57.642667a188.032 188.032 0 0 1-187.733333-57.6A187.221333 187.221333 0 0 1 512 558.933333a187.221333 187.221333 0 0 1-140.8-63.573333 187.306667 187.306667 0 0 1-187.733333 57.642667V887.466667h657.066666v-334.464zM605.866667 371.2a46.933333 46.933333 0 0 1 93.866666 0 93.866667 93.866667 0 1 0 187.733334 0V136.533333H136.533333v234.666667a93.866667 93.866667 0 1 0 187.733334 0 46.933333 46.933333 0 0 1 93.866666 0 93.866667 93.866667 0 1 0 187.733334 0z" p-id="2114"></path></svg>