<?xml version="1.0" standalone="no"?><!DOCTYPE svg PUBLIC "-//W3C//DTD SVG 1.1//EN" "http://www.w3.org/Graphics/SVG/1.1/DTD/svg11.dtd"><svg t="1616728225787" class="icon" viewBox="0 0 1024 1024" version="1.1" xmlns="http://www.w3.org/2000/svg" p-id="1488" xmlns:xlink="http://www.w3.org/1999/xlink" width="200" height="200"><defs><style type="text/css"></style></defs><path d="M89.6 89.6h844.8A46.933333 46.933333 0 0 1 981.333333 136.533333v750.933334a46.933333 46.933333 0 0 1-46.933333 46.933333H89.6A46.933333 46.933333 0 0 1 42.666667 887.466667V136.533333a46.933333 46.933333 0 0 1 46.933333-46.933333z m469.333333 469.333333V512h140.8V418.133333h-121.386666l99.626666-99.541333-66.432-66.389333L512 351.786667 412.458667 252.16 346.026667 318.592 445.653333 418.133333H324.266667V512h140.8v46.933333H324.266667v93.866667h140.8v93.866667h93.866666v-93.866667h140.8v-93.866667h-140.8z" p-id="1489"></path></svg>