<?xml version="1.0" standalone="no"?><!DOCTYPE svg PUBLIC "-//W3C//DTD SVG 1.1//EN" "http://www.w3.org/Graphics/SVG/1.1/DTD/svg11.dtd"><svg t="1616728331914" class="icon" viewBox="0 0 1024 1024" version="1.1" xmlns="http://www.w3.org/2000/svg" p-id="2363" xmlns:xlink="http://www.w3.org/1999/xlink" width="200" height="200"><defs><style type="text/css"></style></defs><path d="M89.6 85.3504h844.8a46.9504 46.9504 0 0 1 46.8992 46.8992V883.2a46.9504 46.9504 0 0 1-46.8992 46.8992H89.6a46.9504 46.9504 0 0 1-46.9504-46.8992V132.2496a46.9504 46.9504 0 0 1 46.9504-46.9504zM136.4992 179.2v657.0496h750.9504V179.2H136.4992z m422.4 375.4496h140.8v93.8496h-140.8V742.4H465.0496v-93.9008h-140.8v-93.8496h140.8v-46.9504h-140.8V413.8496h121.344L346.0608 314.368l66.4576-66.4064L512 347.4944l99.5328-99.584 66.4064 66.4064-99.584 99.5328h121.344v93.8496h-140.8v46.9504z" p-id="2364"></path></svg>